<svg preserveAspectRatio="none" width="100%" height="100%" overflow="visible" style="display: block;" viewBox="0 0 96.788 22" fill="none" xmlns="http://www.w3.org/2000/svg">
<g id="Referon_black-logo_full-blue" clip-path="url(#clip0_0_70)">
<path id="Vector" d="M3.04707 6.82561H6.53223C7.79192 6.82561 8.81228 7.80191 8.81228 9.00723C8.81228 10.2125 7.79192 11.1888 6.53223 11.1888H3.04847V6.82561H3.04707ZM0 4.08284V17.7993H3.04707V13.9329H6.05494L9.10481 17.7993H12.4136L8.92005 13.3705C10.5591 12.5468 11.6788 10.9036 11.6788 9.00857C11.6788 6.28857 9.37494 4.08284 6.53082 4.08284" fill="var(--fill-0, white)"/>
<path id="Vector_2" d="M56.1196 6.82561H59.6047C60.8644 6.82561 61.8848 7.80191 61.8848 9.00723C61.8848 10.2125 60.8644 11.1888 59.6047 11.1888H56.121V6.82561H56.1196ZM53.0725 4.08284V17.7993H56.1196V13.9329H59.1275L62.1773 17.7993H65.4861L61.9926 13.3705C63.6316 12.5468 64.7513 10.9036 64.7513 9.00857C64.7513 6.28857 62.4475 4.08284 59.6033 4.08284" fill="var(--fill-0, white)"/>
<path id="Vector_3" d="M73.982 4.08819C70.0237 4.08819 66.8143 7.15906 66.8143 10.9464C66.8143 14.7338 70.0237 17.8047 73.982 17.8047C77.9402 17.8047 81.1497 14.7338 81.1497 10.9464C81.1497 7.15906 77.9402 4.08819 73.982 4.08819ZM73.982 15.0619C71.6068 15.0619 69.6808 13.2191 69.6808 10.9464C69.6808 8.67374 71.6068 6.83095 73.982 6.83095C76.3572 6.83095 78.2832 8.67374 78.2832 10.9464C78.2832 13.2191 76.3572 15.0619 73.982 15.0619Z" fill="var(--fill-0, #FF7900)"/>
<path id="Vector_4" d="M86.0934 17.6493V7.84876L90.2042 10.6022L91.608 8.19428L83.553 2.79849C83.4144 2.70608 83.2255 2.79983 83.2255 2.96187V21.801C83.2255 22.0059 83.511 22.0768 83.6146 21.8974L86.092 17.6507L86.0934 17.6493Z" fill="var(--fill-0, #FF7900)"/>
<path id="Vector_5" d="M93.9201 4.40157V14.1512L89.8093 11.3978L88.4055 13.8057L96.4605 19.2015C96.5991 19.2939 96.788 19.2002 96.788 19.0381V0.199039C96.788 -0.00586501 96.5025 -0.0768449 96.3989 0.102613L93.9481 4.30515C93.9313 4.33461 93.9215 4.36809 93.9215 4.40157H93.9201Z" fill="var(--fill-0, #FF7900)"/>
<path id="Vector_6" d="M48.8762 17.8301H40.0653V4.11364H50.476L48.8762 6.8564H43.1124V9.59916L50.4942 9.56836L48.8902 12.3192L43.1124 12.3433V15.086H50.476L48.8762 17.8288V17.8301Z" fill="var(--fill-0, white)"/>
<path id="Vector_7" d="M23.0539 17.8301H14.243V4.11364H24.6537L23.0539 6.8564H17.2901V9.59916L24.6719 9.56836L23.0679 12.3192L17.2901 12.3433V15.086H24.6537L23.0539 17.8288V17.8301Z" fill="var(--fill-0, white)"/>
<path id="Vector_8" d="M30.3112 17.8301H27.2641V4.11364H37.6748L36.075 6.8564H30.3112V9.59916L37.693 9.56836L36.089 12.3192L30.3112 12.3433V17.8301Z" fill="var(--fill-0, white)"/>
</g>
<defs>
<clipPath id="clip0_0_70">
<rect width="96.788" height="22" fill="white"/>
</clipPath>
</defs>
</svg>
